<svg xmlns="http://www.w3.org/2000/svg" xmlns:xlink="http://www.w3.org/1999/xlink" viewBox="27.26 27.3 199.44 95.38" version="1.1">
<g id="surface1">
<path style=" stroke:none;fill-rule:nonzero;fill:rgb(38.823529%,5.882353%,32.941176%);fill-opacity:1;" d="M 185.949219 104.804688 C 172.066406 104.804688 160.546875 95.253906 160.546875 78.988281 C 160.546875 63.476562 172.445312 53.738281 185.476562 53.738281 C 198.695312 53.738281 210.027344 62.722656 210.027344 80.121094 L 210.027344 82.011719 C 210.027344 82.390625 209.648438 82.769531 209.179688 82.769531 L 172.726562 82.769531 C 173.671875 90.523438 179.335938 95.347656 186.324219 95.347656 C 190.765625 95.347656 195.203125 93.832031 197.46875 89.765625 C 197.5625 89.578125 197.75 89.484375 198.035156 89.484375 L 208.800781 89.484375 C 209.179688 89.484375 209.460938 89.863281 209.367188 90.242188 C 206.0625 100.453125 195.863281 104.804688 185.949219 104.804688 Z M 185.285156 63.195312 C 178.867188 63.195312 173.484375 67.261719 172.632812 74.164062 L 197.5625 74.164062 C 196.996094 67.542969 192.085938 63.195312 185.285156 63.195312 Z M 185.285156 63.195312 "></path>
<path style=" stroke:none;fill-rule:nonzero;fill:rgb(38.823529%,5.882353%,32.941176%);fill-opacity:1;" d="M 142.230469 103.859375 L 131.277344 103.859375 C 130.992188 103.859375 130.804688 103.667969 130.804688 103.382812 L 130.804688 55.535156 C 130.804688 55.25 130.992188 54.964844 131.277344 54.964844 L 141.945312 54.964844 C 142.324219 54.964844 142.511719 55.25 142.511719 55.535156 L 142.511719 62.4375 C 143.550781 60.734375 144.78125 59.128906 146.386719 57.804688 C 149.3125 55.535156 152.050781 54.589844 156.300781 54.589844 C 157.433594 54.589844 158.285156 54.589844 159.039062 54.777344 C 159.226562 54.777344 159.699219 54.964844 159.699219 55.441406 L 159.699219 65.652344 C 159.699219 66.03125 159.417969 66.316406 159.039062 66.21875 C 157.148438 66.125 156.113281 66.125 154.882812 66.125 C 149.59375 66.125 142.796875 68.015625 142.796875 77.566406 L 142.796875 103.289062 C 142.796875 103.667969 142.609375 103.859375 142.230469 103.859375 Z M 142.230469 103.859375 "></path>
<path style=" stroke:none;fill-rule:nonzero;fill:rgb(38.823529%,5.882353%,32.941176%);fill-opacity:1;" d="M 101.832031 122.675781 C 88.425781 122.675781 80.019531 116.433594 78.128906 106.789062 C 78.035156 106.410156 78.320312 106.128906 78.695312 106.128906 L 89.460938 106.128906 C 89.746094 106.128906 89.933594 106.222656 90.027344 106.503906 C 91.445312 110.949219 95.410156 113.410156 101.925781 113.410156 C 108.726562 113.410156 113.164062 109.910156 113.164062 102.535156 L 113.164062 95.15625 C 110.425781 99.601562 105.328125 102.4375 98.433594 102.4375 C 86.535156 102.4375 76.714844 93.644531 76.714844 77.945312 C 76.714844 62.625 87.007812 53.738281 98.621094 53.738281 C 105.421875 53.738281 110.425781 56.667969 113.257812 61.398438 L 113.257812 55.441406 C 113.257812 55.15625 113.542969 54.871094 113.824219 54.871094 L 124.589844 54.871094 C 124.875 54.871094 125.15625 55.15625 125.15625 55.441406 L 125.15625 102.0625 C 125.15625 115.960938 114.863281 122.675781 101.832031 122.675781 Z M 101.265625 92.605469 C 107.972656 92.605469 113.257812 87.023438 113.257812 77.945312 C 113.257812 68.867188 107.875 63.667969 101.265625 63.667969 C 94.375 63.667969 89.085938 69.152344 89.085938 77.945312 C 89.085938 87.023438 94.375 92.605469 101.265625 92.605469 Z M 101.265625 92.605469 "></path>
<path style=" stroke:none;fill-rule:nonzero;fill:rgb(38.823529%,5.882353%,32.941176%);fill-opacity:1;" d="M 69.15625 39.175781 L 37.144531 71.234375 C 36.859375 71.515625 36.386719 71.421875 36.199219 70.949219 L 34.308594 65.179688 C 34.308594 64.992188 34.308594 64.800781 34.5 64.613281 L 43.847656 55.25 L 27.890625 55.25 C 27.417969 55.25 27.132812 54.777344 27.324219 54.398438 L 30.0625 48.914062 C 30.15625 48.726562 30.34375 48.632812 30.628906 48.632812 L 43.847656 48.632812 L 32.515625 37.285156 C 32.234375 37 32.328125 36.433594 32.800781 36.335938 L 38.558594 34.445312 C 38.75 34.351562 39.03125 34.445312 39.125 34.542969 L 48.570312 43.996094 L 48.570312 27.921875 C 48.570312 27.449219 48.945312 27.164062 49.417969 27.355469 L 54.800781 30.097656 C 54.992188 30.191406 55.085938 30.476562 55.085938 30.664062 L 55.085938 43.902344 L 66.417969 32.648438 C 66.792969 32.273438 67.265625 32.460938 67.457031 32.839844 L 69.25 38.605469 C 69.34375 38.796875 69.34375 38.984375 69.15625 39.175781 Z M 75.765625 48.632812 C 76.238281 48.632812 76.519531 49.007812 76.332031 49.484375 L 73.59375 54.871094 C 73.5 55.0625 73.214844 55.15625 73.027344 55.15625 L 59.804688 55.15625 L 71.042969 66.503906 C 71.421875 66.882812 71.328125 67.355469 70.855469 67.542969 L 65.09375 69.4375 C 64.90625 69.4375 64.621094 69.4375 64.527344 69.246094 L 55.085938 59.882812 L 55.085938 75.867188 C 55.085938 76.339844 54.613281 76.625 54.234375 76.433594 L 48.851562 73.691406 C 48.664062 73.597656 48.570312 73.40625 48.570312 73.125 L 48.570312 64.800781 C 48.570312 64.613281 48.570312 64.425781 48.664062 64.328125 L 64.246094 48.820312 C 64.339844 48.632812 64.527344 48.632812 64.621094 48.632812 Z M 75.765625 48.632812 "></path>
<path style=" stroke:none;fill-rule:nonzero;fill:rgb(38.823529%,5.882353%,32.941176%);fill-opacity:1;" d="M 219.601562 98.25 L 220.839844 98.25 C 221.480469 98.25 221.785156 97.949219 221.785156 97.429688 C 221.785156 96.910156 221.449219 96.574219 220.839844 96.574219 L 219.601562 96.574219 Z M 219.601562 99.40625 L 219.601562 101.6875 L 218.234375 101.6875 L 218.234375 95.453125 L 221.179688 95.453125 C 222.515625 95.453125 223.214844 96.363281 223.214844 97.402344 C 223.214844 98.3125 222.667969 98.894531 222 99.140625 L 222 99.175781 C 222.089844 99.292969 222.152344 99.382812 222.332031 99.785156 L 223.394531 101.695312 L 221.8125 101.695312 L 220.71875 99.65625 C 220.628906 99.449219 220.566406 99.414062 220.324219 99.414062 L 219.59375 99.414062 Z M 225.335938 98.613281 C 225.335938 96.058594 223.214844 93.746094 220.597656 93.746094 C 217.984375 93.746094 215.863281 96.023438 215.863281 98.613281 C 215.863281 101.207031 217.984375 103.453125 220.597656 103.453125 C 223.214844 103.453125 225.335938 101.226562 225.335938 98.613281 Z M 214.523438 98.613281 C 214.523438 95.203125 217.226562 92.496094 220.597656 92.496094 C 223.972656 92.496094 226.703125 95.082031 226.703125 98.613281 C 226.703125 102.144531 223.910156 104.695312 220.597656 104.695312 C 217.289062 104.695312 214.523438 101.992188 214.523438 98.613281 Z M 214.523438 98.613281 "></path>
</g>
</svg>