<?xml version="1.0" encoding="UTF-8"?><svg id="a" xmlns="http://www.w3.org/2000/svg" width="66" height="52.11" viewBox="0 0 66 52.11"><defs><style>.b{fill:#fff;}</style></defs><path class="b" d="M54.17,28.62c-1.32-1.41-4.34-2.51-5.61-2.91-1.27-.4-.51-1.52-.28-2.17,.17-.46,.46-1.16,.53-2.25,.18-1.16-.38-2.6-1.14-3.55-.55-.69-2.41-1.99-6.21-1.77-3.8,.23-7.17,1.65-7.17,1.65h0c-.32,.1-.62,.2-.89,.29-1.55,.54-1.71,.13-1.56-.43,.05-.15,.1-.29,.15-.45,1.4-4.75,.07-6.83-1.96-7.87-.47-.24-1.41-.48-3.4-.45-1.99,.03-4.93,1.04-7.78,2.51-2.85,1.47-9.72,6.14-14.72,13.17C-.87,31.44,.07,36.62,.07,36.62c.75,9.63,14.15,16.51,29.93,15.37,13.49-.98,24.32-7.5,26.72-15.39,.18-.72,.27-1.45,.27-2.18-.03-3.02-1.49-4.38-2.81-5.79Zm-27.75,19.08c-10.78,.78-19.95-4.09-20.48-10.88-.53-6.79,7.78-12.92,18.57-13.7,10.78-.78,19.95,4.09,20.48,10.88,.53,6.79-7.78,12.92-18.56,13.7Z"/><path class="b" d="M62.83,24.77c-.36,0-.72-.08-1.03-.24-.32-.16-.59-.39-.8-.68-.21-.28-.34-.61-.39-.96-.05-.34-.01-.69,.11-1.02,.52-1.42,.79-2.91,.79-4.41,0-7.24-6.11-13.13-13.63-13.13-.63,0-1.26,.04-1.89,.12-1.22,.16-2.37-.66-2.54-1.85-.04-.28-.02-.57,.05-.84,.07-.28,.2-.53,.38-.76,.18-.23,.4-.42,.66-.56,.25-.14,.54-.24,.83-.28,.83-.11,1.67-.17,2.51-.17,10,0,18.13,7.84,18.13,17.47,0,2-.35,3.98-1.05,5.86-.16,.42-.44,.79-.82,1.04-.38,.26-.83,.4-1.3,.4Z"/><path class="b" d="M54.21,21.74c-.36,0-.72-.08-1.04-.25-.32-.16-.6-.39-.8-.68-.21-.28-.34-.61-.39-.96-.05-.34,0-.7,.11-1.02,.18-.47,.27-.97,.27-1.48,0-2.39-2.01-4.32-4.49-4.32-.18,0-.36,0-.54,.03-.29,.04-.59,.02-.88-.06-.29-.08-.55-.2-.79-.38-.23-.18-.43-.39-.58-.64-.15-.25-.24-.52-.28-.81-.04-.28-.01-.57,.07-.85,.08-.28,.21-.53,.4-.76,.18-.22,.41-.41,.67-.55,.26-.14,.54-.23,.84-.26,.36-.04,.73-.06,1.09-.06,4.95,0,8.99,3.89,8.99,8.66,0,1.01-.18,2-.54,2.95-.16,.42-.44,.78-.82,1.04-.38,.26-.83,.39-1.29,.39Z"/><path class="b" d="M34.36,33.87c-1.06-4.65-6.55-7.44-12.27-6.23-5.72,1.21-9.5,5.96-8.44,10.61,1.06,4.65,6.55,7.44,12.27,6.23,5.72-1.21,9.5-5.96,8.44-10.61Zm-13.52,6.48c-2.1,.44-4.08-.42-4.42-1.93-.34-1.51,1.08-3.09,3.18-3.54,2.1-.44,4.08,.42,4.42,1.93,.34,1.51-1.08,3.09-3.18,3.54Zm7.28-4.74c-.5,.66-1.42,.84-2.05,.4-.63-.44-.73-1.34-.22-2,.5-.66,1.42-.84,2.05-.4,.63,.44,.73,1.34,.22,2Z"/></svg>