<?xml version="1.0" encoding="UTF-8"?><svg id="a" xmlns="http://www.w3.org/2000/svg" width="66" height="59.01" viewBox="0 0 66 59.01"><defs><style>.b{fill:#fff;fill-rule:evenodd;}</style></defs><path class="b" d="M0,4.93C0,3.62,.58,2.37,1.62,1.44,2.65,.52,4.05,0,5.51,0H60.48c.72,0,1.44,.13,2.11,.37,.67,.25,1.28,.61,1.79,1.07,.51,.46,.92,1,1.2,1.6,.28,.6,.42,1.24,.42,1.89V54.07c0,.65-.14,1.29-.42,1.89-.28,.6-.68,1.14-1.2,1.6-.51,.46-1.12,.82-1.79,1.07s-1.39,.38-2.11,.38H5.51c-.72,0-1.44-.13-2.11-.38-.67-.25-1.28-.61-1.79-1.07-.51-.46-.92-1-1.2-1.6C.14,55.36,0,54.72,0,54.07V4.93ZM26.12,22.5h8.94v4.01c1.29-2.31,4.59-4.38,9.55-4.38,9.51,0,11.76,4.59,11.76,13.02v15.62h-9.62v-13.69c0-4.8-1.29-7.51-4.57-7.51-4.54,0-6.43,2.92-6.43,7.51v13.69h-9.62V22.5ZM9.62,50.4h9.62V22.13H9.62v28.27h0ZM20.63,12.91c.02,.74-.13,1.47-.43,2.15-.3,.69-.76,1.31-1.33,1.84-.58,.53-1.26,.95-2.02,1.23-.76,.29-1.58,.43-2.4,.43s-1.64-.15-2.4-.43c-.76-.29-1.45-.7-2.02-1.23-.58-.53-1.03-1.15-1.33-1.84-.3-.69-.45-1.42-.43-2.15,.04-1.45,.7-2.82,1.86-3.83,1.16-1.01,2.71-1.58,4.33-1.58s3.17,.57,4.33,1.58c1.16,1.01,1.82,2.39,1.86,3.83Z"/></svg>