<?xml version="1.0" encoding="UTF-8"?><svg id="a" xmlns="http://www.w3.org/2000/svg" width="66" height="65.99" viewBox="0 0 66 65.99"><defs><style>.b{fill:#fff;}</style></defs><path class="b" d="M33.03,0c4.89,0,9.78-.01,14.67,0,10.12,.03,18.26,8.16,18.29,18.3,.03,9.78,.02,19.55,0,29.33-.02,10.23-8.18,18.33-18.45,18.34-9.71,.01-19.43,.02-29.14,0C8.14,65.96,.03,57.84,.01,47.58c-.02-9.65-.01-19.3,0-28.96C.03,8.08,8.05,.03,18.55,0c4.83,0,9.65,0,14.48,0Zm15.91,33.08c.03-8.66-7.25-16-15.89-16.03-8.63-.03-15.96,7.27-15.99,15.94-.03,8.63,7.34,15.98,15.98,15.94,8.58-.03,15.87-7.3,15.89-15.85Zm1.23-21.3c-2.05,.02-3.95,1.93-3.96,3.96-.01,2.21,1.83,4.05,4.03,4.04,2.16-.02,4.04-1.95,3.99-4.11-.05-2.01-2.03-3.91-4.05-3.89Z"/><path class="b" d="M43.5,33.03c-.05,5.92-4.65,10.48-10.54,10.46-5.97-.02-10.56-4.73-10.47-10.71,.09-5.83,4.8-10.36,10.71-10.29,5.66,.07,10.34,4.86,10.3,10.54Z"/></svg>