<?xml version="1.0" encoding="UTF-8"?><svg id="a" xmlns="http://www.w3.org/2000/svg" width="66.03" height="29.88" viewBox="0 0 66.03 29.88"><defs><style>.b{fill:#fff;fill-rule:evenodd;}</style></defs><path class="b" d="M5.56,4.18H14.15c1-.23,1.42,.6,1.4,1.49,.15,.62-.02,.99-.7,.83h-1.7c-.5-.11-2.3,0-2.86-.03-.04,2.51-.07,5.09-.24,7.59h4.02c1.87-.37,2.17,.62,2.16,2.42h-6.35l-.03,.03c-.04,1.46-.47,2.75-.78,4.13h.05c.49-.34,.92-.79,1.4-1.14,1.44,1.46,2.84,3.05,4.05,4.71,.41,1.14,.19,2.53-.08,3.7h-.08c-1.81-2.19-3.66-4.5-5.53-6.61-1.02,4.05-3.82,9.81-8.88,8.09,4.03-3.07,6.91-7.67,7.26-12.85,0-.07-6.43-.01-6.7-.03,.12-1.85,1.3-2.8,3.02-2.42h3.95c.09-2.47,.18-5.12,.18-7.59h-2.97c-.53,2.06-1.74,3.7-4.31,3.8C2.78,7.05,2.07,.64,6.86,0c.01,.04,.02,.04,.03,.1-.5,1.3-1,2.69-1.32,4.1v-.02Z"/><path class="b" d="M52.52,15.24c3.95,.03,9.5-.07,13.51-.08-.01,1.01,.02,1.95-.7,2.43-2.96,.11-9.77-.01-12.83,.03-.25,2.84,.71,8.4-.85,10.6-2.03,2.74-7.32,1.93-8.43-1.29,9.33,1.32,6.36-2.51,6.79-9.31h-10.63c-1.56,.19-2.9-.81-3.13-2.35,4.52-.06,9.16,.04,13.72,0,.16,.12,0-10,.06-10.29-2.11-.07-4.71,.21-6.83,.25-2.05,.14-5.29,.62-5.7-2.15,8.67-.52,17.42-.8,26-2.35,1.64-.08,.8,2.62,.44,3.48-2.03,.06-9.21,.49-11.41,.62-.12-.22,.02,10.19-.03,10.41h.02Z"/><path class="b" d="M17.58,3.79V26.23c2.62,.05,2.32-.59,3.05,2.09-.25,1.6,3.72-1.8,4.49-2.09h5.13V3.79h-12.67Zm10.09,20c-.67,0-2.27-.01-2.92,.03-.94,.59-1.89,1.24-2.84,1.78-.24-.55-.33-1.23-.54-1.78-.4,0-.81-.02-1.21-.03,.04-.91-.07-17.16,.03-17.58h7.48V23.79Z"/><path class="b" d="M60.59,7.01c.88,0,1.47,.47,2.01,.83-1.5,2.04-3.04,4.07-4.62,6.04-.68-.44-1.32-.97-1.99-1.47,1.52-1.68,2.65-4.34,4.59-5.41h.01Z"/><path class="b" d="M41.22,7.48c2.42,.17,3.36,3.46,4.83,5.09-.67,.4-1.28,.97-1.96,1.37-1.41-1.93-2.88-3.92-4.25-5.89,.27-.33,1-.46,1.4-.57h-.02Z"/></svg>