<?xml version="1.0" encoding="UTF-8"?><svg id="a" xmlns="http://www.w3.org/2000/svg" width="66" height="52.89" viewBox="0 0 66 52.89"><defs><style>.b{fill:#fff;}</style></defs><path class="b" d="M48.19,13.14c-16.17-.85-29.15,12-23.78,26.7-2.84-.51-5.46-.85-8.01-1.49-.51-.17-1.05-.22-1.59-.14-.53,.08-1.04,.28-1.48,.58-2.06,1.34-4.2,2.55-6.65,4l2.44-7.53c-1.26-1.07-2.53-2.01-3.65-3.12C-1.77,24.99-1.82,14.78,5.31,7.54,15.7-3.03,35.6-2.39,45.24,8.85c1.06,1.38,2.04,2.81,2.94,4.29h0Zm-13.55-1.62c0-.44-.07-.87-.23-1.28-.16-.41-.41-.78-.72-1.08-.31-.31-.68-.55-1.09-.71-.41-.16-.85-.23-1.28-.22-.89,.01-1.73,.38-2.35,1.01-.62,.63-.97,1.48-.97,2.37,.08,.85,.46,1.65,1.07,2.25,.61,.6,1.42,.96,2.27,1.02,.89-.01,1.73-.37,2.35-1,.62-.63,.97-1.48,.97-2.36h0Zm-19.72-3.29c-.44-.02-.88,.05-1.29,.21-.41,.16-.78,.39-1.1,.7-.32,.3-.57,.67-.74,1.07-.17,.4-.26,.84-.26,1.28,.01,.88,.37,1.73,.98,2.36,.62,.63,1.46,1,2.34,1.03,.85-.03,1.67-.38,2.27-.98,.61-.6,.97-1.41,1.01-2.26,.02-.44-.05-.87-.2-1.29-.15-.41-.39-.79-.69-1.1-.3-.32-.66-.57-1.07-.75-.4-.17-.83-.27-1.27-.27h0Z"/><path class="b" d="M59.03,52.89c-3.67-4.06-8.18-3.94-13.03-3.54-4.85,.4-9.44-1.34-13.35-4.43-8.02-6.33-8.3-16.53-.66-23.36,7.43-6.64,20.89-6.69,28.37-.11,8.03,7.06,7.42,17.99-1.4,24.1-1.24,.85-1.62,1.56-1,2.94,.56,1.25,.9,2.6,1.34,3.92l-.27,.47Zm-19.38-28.13c-.44-.02-.88,.06-1.29,.22-.41,.16-.78,.4-1.09,.71-.31,.31-.55,.68-.72,1.09-.16,.41-.24,.85-.22,1.28,0,.89,.37,1.74,1,2.36,.63,.63,1.48,.98,2.37,.99,.85-.08,1.65-.45,2.25-1.06,.6-.61,.97-1.41,1.05-2.26,0-.89-.36-1.74-.99-2.37-.63-.63-1.48-.98-2.37-.98h.01Zm16.45,3.32c.02-.44-.04-.88-.2-1.29-.16-.41-.4-.79-.7-1.1-.31-.31-.68-.56-1.09-.72-.41-.16-.85-.23-1.29-.22-.44,0-.87,.08-1.28,.25-.41,.17-.77,.41-1.09,.72-.31,.31-.56,.68-.73,1.08-.17,.4-.26,.84-.26,1.28,.07,.85,.43,1.66,1.04,2.27s1.4,.99,2.25,1.06c.44,0,.87-.09,1.28-.25,.4-.17,.77-.41,1.08-.72,.31-.31,.55-.68,.72-1.08,.17-.4,.25-.84,.25-1.28h.01Z"/></svg>